<?xml version="1.0" encoding="iso-8859-1"?>
<!-- Generator: Adobe Illustrator 19.0.0, SVG Export Plug-In . SVG Version: 6.00 Build 0)  -->
<svg version="1.1" id="Layer_1" xmlns="http://www.w3.org/2000/svg" xmlns:xlink="http://www.w3.org/1999/xlink" x="0px" y="0px"
	 viewBox="0 0 511.998 511.998" style="enable-background:new 0 0 511.998 511.998;" xml:space="preserve">
<path style="fill:#E16B5A;" d="M247.943,389.906c2.237,0,5.041-0.039,8.243-0.083c-0.028,0-0.059,0-0.087,0
	c6.668-0.087,15.285-0.177,25.104,0.063c0.043,0,0.087,0.004,0.126,0.004c1.965,0.047,3.978,0.114,6.034,0.193
	c0.354,0.012,0.717,0.032,1.071,0.047c1.757,0.071,3.537,0.154,5.352,0.252c0.536,0.028,1.079,0.063,1.619,0.095
	c1.674,0.098,3.356,0.201,5.069,0.323c0.63,0.043,1.268,0.095,1.902,0.146c1.646,0.126,3.3,0.26,4.974,0.414
	c0.705,0.063,1.414,0.134,2.123,0.201c1.634,0.158,3.277,0.327,4.931,0.516c0.748,0.083,1.493,0.169,2.245,0.26
	c1.642,0.197,3.293,0.41,4.951,0.634c0.768,0.102,1.532,0.209,2.304,0.319c1.67,0.24,3.348,0.5,5.029,0.776
	c0.756,0.122,1.512,0.244,2.272,0.374c1.713,0.295,3.426,0.614,5.14,0.945c0.733,0.142,1.461,0.276,2.194,0.421
	c1.784,0.358,3.568,0.752,5.348,1.158c0.654,0.15,1.308,0.288,1.961,0.441c1.93,0.457,3.848,0.949,5.766,1.457
	c0.504,0.134,1.008,0.252,1.508,0.39c2.351,0.646,4.695,1.331,7.018,2.064c0.051,0.016,0.106,0.032,0.158,0.047
	c4.836,1.532,9.594,3.265,14.222,5.218c0.398,0.169,0.784,0.358,1.182,0.528c1.851,0.799,3.686,1.623,5.49,2.501
	c0.65,0.315,1.284,0.662,1.926,0.985c1.524,0.772,3.04,1.552,4.525,2.379c0.744,0.414,1.465,0.859,2.198,1.288
	c1.347,0.792,2.686,1.591,3.994,2.434c0.776,0.5,1.528,1.024,2.288,1.54c1.221,0.831,2.434,1.678,3.615,2.56
	c0.768,0.575,1.52,1.166,2.269,1.76c1.122,0.886,2.221,1.792,3.3,2.729c0.744,0.646,1.473,1.308,2.198,1.977
	c1.028,0.953,2.028,1.93,3.009,2.93c0.701,0.717,1.394,1.441,2.076,2.182c0.937,1.024,1.843,2.083,2.729,3.159
	c0.65,0.784,1.296,1.568,1.918,2.379c0.851,1.111,1.658,2.265,2.458,3.426c0.579,0.843,1.166,1.682,1.717,2.552
	c0.362,0.575,0.725,1.146,1.071,1.733c50.172-46.072,81.64-112.195,81.64-185.682c0-139.208-112.852-252.061-252.061-252.061
	S0.002,120.733,0.002,259.941c0,70.971,29.373,135.045,76.575,180.853C116.233,384.093,220.697,389.906,247.943,389.906z"/>
<g>
	<path style="fill:#91D2F2;" d="M381.196,409.606c0.65,0.315,1.284,0.662,1.926,0.985
		C382.476,410.264,381.846,409.921,381.196,409.606z"/>
	<path style="fill:#91D2F2;" d="M343.891,396.96c0.654,0.15,1.312,0.287,1.961,0.441C345.199,397.247,344.545,397.11,343.891,396.96
		z"/>
	<path style="fill:#91D2F2;" d="M328.933,394.061c0.756,0.122,1.512,0.244,2.272,0.374
		C330.449,394.305,329.693,394.187,328.933,394.061z"/>
	<path style="fill:#91D2F2;" d="M374.521,406.578c0.398,0.169,0.784,0.358,1.182,0.528
		C375.308,406.936,374.922,406.747,374.521,406.578z"/>
	<path style="fill:#91D2F2;" d="M351.615,398.858c0.5,0.134,1.008,0.252,1.508,0.39C352.623,399.11,352.119,398.992,351.615,398.858
		z"/>
	<path style="fill:#91D2F2;" d="M321.604,392.966c0.768,0.102,1.536,0.209,2.304,0.319
		C323.136,393.175,322.368,393.073,321.604,392.966z"/>
	<path style="fill:#91D2F2;" d="M360.141,401.312c0.051,0.016,0.106,0.032,0.158,0.047
		C360.248,401.343,360.192,401.328,360.141,401.312z"/>
	<path style="fill:#91D2F2;" d="M336.349,395.381c0.733,0.142,1.461,0.276,2.194,0.421
		C337.81,395.656,337.082,395.522,336.349,395.381z"/>
	<path style="fill:#91D2F2;" d="M287.363,390.083c0.351,0.012,0.717,0.032,1.071,0.047
		C288.079,390.115,287.717,390.095,287.363,390.083z"/>
	<path style="fill:#91D2F2;" d="M293.786,390.379c0.532,0.028,1.079,0.063,1.619,0.095
		C294.865,390.446,294.322,390.41,293.786,390.379z"/>
	<path style="fill:#91D2F2;" d="M281.203,389.886c0.039,0,0.087,0.004,0.126,0.004C281.286,389.89,281.242,389.89,281.203,389.886z"
		/>
	<path style="fill:#91D2F2;" d="M300.47,390.8c0.63,0.043,1.268,0.095,1.902,0.146C301.738,390.895,301.1,390.844,300.47,390.8z"/>
	<path style="fill:#91D2F2;" d="M314.404,392.072c0.748,0.083,1.497,0.169,2.245,0.26
		C315.897,392.246,315.152,392.159,314.404,392.072z"/>
	<path style="fill:#91D2F2;" d="M307.346,391.355c0.705,0.063,1.414,0.134,2.123,0.201
		C308.76,391.489,308.051,391.422,307.346,391.355z"/>
	<path style="fill:#91D2F2;" d="M406.985,458.695c-22.406-59.62-102.904-68.013-150.803-68.868
		c-3.198,0.039-6.002,0.079-8.239,0.079c-27.246,0-131.71-5.813-171.362,50.885c45.383,44.044,107.248,71.207,175.485,71.207
		C310.497,511.998,364.237,492.062,406.985,458.695z"/>
	<path style="fill:#91D2F2;" d="M419.698,441.334c0.579,0.843,1.166,1.682,1.717,2.552
		C420.864,443.016,420.277,442.181,419.698,441.334z"/>
	<path style="fill:#91D2F2;" d="M393.839,416.692c0.776,0.5,1.528,1.024,2.288,1.54
		C395.367,417.716,394.611,417.192,393.839,416.692z"/>
	<path style="fill:#91D2F2;" d="M399.738,420.791c0.768,0.575,1.52,1.166,2.269,1.76
		C401.259,421.961,400.51,421.366,399.738,420.791z"/>
	<path style="fill:#91D2F2;" d="M405.311,425.281c0.744,0.646,1.473,1.308,2.198,1.977
		C406.784,426.593,406.056,425.931,405.311,425.281z"/>
	<path style="fill:#91D2F2;" d="M410.518,430.189c0.701,0.717,1.394,1.441,2.076,2.182
		C411.916,431.63,411.219,430.905,410.518,430.189z"/>
	<path style="fill:#91D2F2;" d="M387.647,412.974c0.744,0.414,1.465,0.859,2.198,1.288
		C389.112,413.828,388.388,413.387,387.647,412.974z"/>
	<path style="fill:#91D2F2;" d="M415.323,435.529c0.65,0.784,1.296,1.568,1.918,2.379
		C416.619,437.097,415.973,436.313,415.323,435.529z"/>
</g>
<g>
	<path style="fill:#8AC7E6;" d="M422.487,445.619c-0.012,0.012-0.028,0.028-0.039,0.039"/>
	<path style="fill:#8AC7E6;" d="M295.401,390.477c1.67,0.098,3.356,0.201,5.069,0.323
		C298.757,390.678,297.075,390.572,295.401,390.477z"/>
	<path style="fill:#8AC7E6;" d="M412.594,432.37c0.937,1.024,1.843,2.083,2.729,3.159
		C414.433,434.454,413.531,433.394,412.594,432.37z"/>
	<path style="fill:#8AC7E6;" d="M281.203,389.886c-9.819-0.24-18.432-0.15-25.104-0.063c0.028,0,0.059,0,0.087,0
		C262.854,389.741,271.4,389.646,281.203,389.886z"/>
	<path style="fill:#8AC7E6;" d="M288.434,390.131c1.757,0.071,3.537,0.154,5.352,0.252
		C291.971,390.284,290.191,390.202,288.434,390.131z"/>
	<path style="fill:#8AC7E6;" d="M302.372,390.946c1.642,0.126,3.3,0.26,4.974,0.414
		C305.673,391.206,304.018,391.072,302.372,390.946z"/>
	<path style="fill:#8AC7E6;" d="M422.447,445.659c0.016-0.012,0.028-0.028,0.039-0.039c-0.35-0.587-0.709-1.158-1.071-1.733
		C421.778,444.462,422.097,445.072,422.447,445.659z"/>
	<path style="fill:#8AC7E6;" d="M417.241,437.908c0.851,1.111,1.658,2.265,2.458,3.426
		C418.899,440.173,418.092,439.019,417.241,437.908z"/>
	<path style="fill:#8AC7E6;" d="M281.329,389.89c1.965,0.047,3.978,0.114,6.034,0.193
		C285.307,390.005,283.294,389.942,281.329,389.89z"/>
	<path style="fill:#8AC7E6;" d="M323.908,393.289c1.67,0.24,3.348,0.504,5.029,0.776
		C327.251,393.789,325.577,393.53,323.908,393.289z"/>
	<path style="fill:#8AC7E6;" d="M389.841,414.262c1.347,0.792,2.686,1.591,3.994,2.434
		C392.531,415.853,391.192,415.049,389.841,414.262z"/>
	<path style="fill:#8AC7E6;" d="M396.127,418.235c1.221,0.831,2.434,1.678,3.615,2.56
		C398.557,419.909,397.348,419.066,396.127,418.235z"/>
	<path style="fill:#8AC7E6;" d="M345.853,397.401c1.926,0.453,3.848,0.949,5.766,1.457
		C349.7,398.35,347.779,397.854,345.853,397.401z"/>
	<path style="fill:#8AC7E6;" d="M353.123,399.248c2.351,0.646,4.695,1.331,7.018,2.064
		C357.818,400.579,355.478,399.894,353.123,399.248z"/>
	<path style="fill:#8AC7E6;" d="M360.299,401.359c4.836,1.532,9.594,3.265,14.222,5.218
		C369.893,404.624,365.139,402.891,360.299,401.359z"/>
	<path style="fill:#8AC7E6;" d="M375.706,407.105c1.851,0.799,3.686,1.623,5.49,2.501
		C379.392,408.732,377.553,407.905,375.706,407.105z"/>
	<path style="fill:#8AC7E6;" d="M331.206,394.439c1.713,0.295,3.426,0.614,5.14,0.945
		C334.632,395.05,332.919,394.731,331.206,394.439z"/>
	<path style="fill:#8AC7E6;" d="M338.539,395.802c1.784,0.362,3.568,0.752,5.348,1.158
		C342.107,396.558,340.327,396.164,338.539,395.802z"/>
	<path style="fill:#8AC7E6;" d="M316.649,392.332c1.642,0.197,3.293,0.41,4.951,0.634
		C319.942,392.742,318.295,392.529,316.649,392.332z"/>
	<path style="fill:#8AC7E6;" d="M407.509,427.262c1.028,0.953,2.028,1.93,3.009,2.93
		C409.537,429.188,408.537,428.211,407.509,427.262z"/>
	<path style="fill:#8AC7E6;" d="M383.122,410.591c1.524,0.772,3.04,1.552,4.525,2.379
		C386.163,412.143,384.646,411.363,383.122,410.591z"/>
	<path style="fill:#8AC7E6;" d="M402.011,422.556c1.118,0.886,2.225,1.792,3.3,2.729
		C404.232,424.348,403.129,423.442,402.011,422.556z"/>
	<path style="fill:#8AC7E6;" d="M309.473,391.56c1.634,0.158,3.277,0.327,4.931,0.516
		C312.746,391.887,311.108,391.718,309.473,391.56z"/>
	<path style="fill:#8AC7E6;" d="M419.698,441.334c-0.799-1.162-1.607-2.316-2.458-3.426c-0.622-0.811-1.268-1.595-1.918-2.379
		c-0.89-1.075-1.792-2.135-2.729-3.159c-0.677-0.74-1.371-1.465-2.076-2.182c-0.981-1-1.985-1.977-3.009-2.93
		c-0.725-0.67-1.453-1.331-2.198-1.977c-1.079-0.933-2.182-1.843-3.3-2.729c-0.752-0.595-1.501-1.189-2.269-1.76
		c-1.182-0.882-2.391-1.725-3.615-2.56c-0.76-0.516-1.512-1.04-2.288-1.54c-1.308-0.843-2.647-1.642-3.994-2.434
		c-0.733-0.429-1.453-0.874-2.198-1.288c-1.485-0.827-3.001-1.611-4.525-2.379c-0.646-0.327-1.276-0.67-1.926-0.985
		c-1.804-0.874-3.639-1.697-5.49-2.501c-0.398-0.173-0.784-0.358-1.182-0.528c-4.628-1.953-9.385-3.686-14.222-5.218
		c-0.051-0.016-0.106-0.032-0.158-0.047c-2.324-0.733-4.663-1.418-7.018-2.064c-0.5-0.138-1.004-0.256-1.508-0.39
		c-1.918-0.508-3.836-1.004-5.766-1.457c-0.654-0.154-1.308-0.291-1.961-0.441c-1.78-0.402-3.564-0.796-5.348-1.158
		c-0.733-0.146-1.461-0.284-2.194-0.421c-1.713-0.331-3.43-0.65-5.14-0.945c-0.76-0.13-1.516-0.252-2.272-0.374
		c-1.682-0.272-3.359-0.536-5.029-0.776c-0.768-0.11-1.536-0.217-2.304-0.319c-1.658-0.224-3.308-0.437-4.951-0.634
		c-0.748-0.091-1.501-0.177-2.245-0.26c-1.654-0.185-3.3-0.354-4.931-0.516c-0.709-0.067-1.422-0.138-2.123-0.201
		c-1.674-0.15-3.332-0.288-4.974-0.414c-0.634-0.047-1.272-0.098-1.902-0.146c-1.709-0.122-3.395-0.228-5.069-0.323
		c-0.54-0.032-1.083-0.067-1.619-0.095c-1.816-0.098-3.596-0.177-5.352-0.252c-0.354-0.016-0.717-0.032-1.071-0.047
		c-2.056-0.079-4.072-0.142-6.034-0.193c-0.039,0-0.087-0.004-0.126-0.004c-9.803-0.244-18.345-0.15-25.017-0.063
		c47.895,0.855,128.397,9.247,150.803,68.868c5.321-4.151,10.496-8.479,15.462-13.036c-0.35-0.587-0.67-1.197-1.032-1.772
		C420.864,443.016,420.277,442.181,419.698,441.334z"/>
</g>
<ellipse style="fill:#F5F5F5;" cx="247.94" cy="395.81" rx="55.14" ry="21.661"/>
<path style="fill:#E6CBC3;" d="M296.85,384.247h0.02l-13.481-41.929l-35.446-2.623l-35.446,2.623l-13.481,41.929h0.02
	c-0.201,0.575-0.323,1.162-0.323,1.745c0,8.688,22.043,15.726,49.231,15.726s49.231-7.038,49.231-15.726
	C297.173,385.405,297.051,384.822,296.85,384.247z"/>
<path style="fill:#D9BFB8;" d="M296.85,384.247h0.02l-13.481-41.929l-35.446-2.623l-6.892,0.508l28.554,2.115l13.481,41.929h-0.02
	c0.201,0.575,0.323,1.162,0.323,1.745c0,7.94-18.424,14.486-42.338,15.557c2.257,0.095,4.545,0.169,6.892,0.169
	c27.187,0,49.231-7.038,49.231-15.726C297.173,385.405,297.051,384.822,296.85,384.247z"/>
<path style="fill:#FFE1D9;" d="M350.342,173.292V132.32c0-31.953-22.729-57.49-102.4-57.49s-102.4,25.537-102.4,57.49v40.972
	c0,0-15.754,1.162-15.754,11.815v43.595c0,10.65,3.938,19.42,15.754,19.42c0,53.252,47.348,114.215,102.4,114.215
	c55.048,0,102.4-60.963,102.4-114.215c11.815,0,15.754-8.771,15.754-19.42v-43.595C366.096,174.453,350.342,173.292,350.342,173.292
	z"/>
<path style="fill:#F2D6CE;" d="M247.943,74.83c-2.016,0-3.966,0.028-5.908,0.059c74.878,1.245,96.492,26.285,96.492,57.43v40.972
	v74.83c0,51.338-44.012,109.816-96.492,113.963c1.961,0.154,3.927,0.252,5.908,0.252c55.048,0,102.4-60.963,102.4-114.215V173.29
	v-40.97C350.342,100.367,327.618,74.83,247.943,74.83z"/>
<path style="fill:#66401E;" d="M247.943,74.83c-79.671,0-102.4,25.537-102.4,57.49v40.972v43.323
	c3.647-18.235,14.06-70.226,37.478-87.197c18.629,5.325,40.94,8.428,64.921,8.428s46.293-3.107,64.921-8.428
	c23.41,16.975,33.831,68.962,37.478,87.197v-43.323V132.32C350.342,100.367,327.618,74.83,247.943,74.83z"/>
<path style="fill:#59381A;" d="M247.943,74.83c-2.009,0-3.958,0.028-5.896,0.059c74.866,1.248,96.48,26.285,96.48,57.43v38.872
	c6.274,17.833,9.941,36.068,11.815,45.422V173.29v-40.97C350.342,100.367,327.618,74.83,247.943,74.83z"/>
<path style="fill:#FFFFFF;" d="M502.138,58.663c-0.095-1.201-0.244-2.399-0.414-3.592c2.619-2.383,4.529-5.455,5.522-8.948
	c1.402-4.951,0.796-10.149-1.701-14.62c-3.391-6.109-9.834-9.901-16.821-9.901c-1.757,0-3.513,0.248-5.238,0.74
	c-0.91-0.776-1.859-1.524-2.828-2.237c0.382-8.708-5.23-16.884-13.962-19.365c-1.721-0.492-3.493-0.74-5.27-0.74
	c-7.003,0-13.379,3.86-16.778,9.858c-1.213,0.098-2.414,0.24-3.616,0.417c-3.596-3.935-8.735-6.254-14.194-6.254
	c-3.265,0-6.502,0.843-9.362,2.438c-4.506,2.501-7.755,6.605-9.165,11.559c-0.985,3.466-0.985,7.054,0,10.496
	c-0.772,0.914-1.52,1.855-2.233,2.824c-0.284-0.012-0.575-0.02-0.866-0.02c-8.562,0-16.167,5.754-18.499,13.978
	c-1.406,4.939-0.815,10.138,1.69,14.631c1.768,3.178,4.336,5.734,7.436,7.459c0.098,1.193,0.244,2.383,0.414,3.568
	c-6.428,5.876-8.239,15.628-3.816,23.595c3.395,6.085,9.846,9.866,16.825,9.866c1.772,0,3.533-0.248,5.234-0.733
	c0.906,0.776,1.851,1.52,2.812,2.229c-0.386,8.704,5.226,16.888,13.978,19.389c1.713,0.484,3.474,0.729,5.238,0.729
	c7.101,0,13.54-3.938,16.845-9.87c1.193-0.098,2.379-0.24,3.552-0.417c3.604,3.935,8.747,6.254,14.21,6.254
	c3.269,0,6.51-0.847,9.374-2.442c4.486-2.497,7.727-6.601,9.133-11.548c0.996-3.505,0.985-7.136,0.02-10.516
	c0.772-0.91,1.512-1.847,2.217-2.808c0.287,0.012,0.866,0.02,0.866,0.02c8.546,0,16.163-5.746,18.522-14.001
	C513.737,72.003,509.763,62.948,502.138,58.663z"/>
<path style="fill:#263740;" d="M495.864,64.508c-0.484-0.134-0.973-0.185-1.441-0.256c0.122-4.454-0.41-8.814-1.552-13.017
	c0.469-0.181,0.957-0.193,1.386-0.437c5.494-3.052,7.467-9.988,4.399-15.474c-3.052-5.498-9.972-7.467-15.47-4.403
	c-0.417,0.256-0.709,0.654-1.095,0.945c-2.966-3.163-6.404-5.912-10.271-8.145c0.185-0.449,0.41-0.886,0.555-1.363
	c1.713-6.046-1.788-12.327-7.826-14.044c-6.046-1.721-12.331,1.804-14.056,7.83c-0.126,0.477-0.185,0.969-0.248,1.434
	c-4.454-0.122-8.826,0.41-13.024,1.54c-0.181-0.461-0.201-0.937-0.441-1.375c-3.052-5.49-9.968-7.455-15.466-4.395
	c-5.494,3.052-7.467,9.988-4.415,15.458c0.264,0.449,0.677,0.705,0.957,1.099c-3.178,2.97-5.919,6.416-8.153,10.271
	c-0.453-0.201-0.882-0.406-1.371-0.547c-6.042-1.713-12.327,1.788-14.033,7.83c-1.725,6.042,1.792,12.335,7.834,14.056
	c0.461,0.134,0.953,0.173,1.422,0.248c-0.122,4.474,0.41,8.826,1.548,13.017c-0.465,0.185-0.933,0.205-1.386,0.449
	c-5.494,3.048-7.448,9.988-4.395,15.482c3.052,5.47,9.988,7.444,15.466,4.391c0.441-0.248,0.713-0.662,1.115-0.945
	c2.974,3.163,6.384,5.908,10.256,8.145c-0.205,0.449-0.41,0.894-0.551,1.363c-1.717,6.042,1.788,12.331,7.826,14.056
	c6.038,1.709,12.355-1.808,14.052-7.841c0.146-0.477,0.185-0.969,0.264-1.434c4.458,0.122,8.806-0.41,13.021-1.548
	c0.165,0.465,0.181,0.953,0.421,1.382c3.056,5.49,9.992,7.459,15.49,4.391c5.471-3.048,7.444-9.988,4.391-15.458
	c-0.248-0.449-0.65-0.713-0.933-1.111c3.155-2.962,5.9-6.4,8.129-10.264c0.445,0.185,0.902,0.41,1.375,0.551
	c6.038,1.713,12.323-1.792,14.048-7.83C505.407,72.519,501.89,66.237,495.864,64.508z M449.032,78.454
	c-8.298,0-15.041-6.735-15.041-15.049c0-8.31,6.743-15.049,15.041-15.049c8.31,0,15.053,6.739,15.053,15.049
	S457.342,78.454,449.032,78.454z"/>
<path style="fill:#F5F5F5;" d="M449.032,98.52c-19.357,0-35.111-15.754-35.111-35.115s15.754-35.115,35.111-35.115
	c19.365,0,35.119,15.754,35.119,35.115S468.397,98.52,449.032,98.52z M449.032,33.311c-16.593,0-30.098,13.501-30.098,30.098
	c0,16.593,13.505,30.098,30.098,30.098c16.601,0,30.109-13.505,30.109-30.098C479.134,46.808,465.633,33.311,449.032,33.311z"/>
<g>
</g>
<g>
</g>
<g>
</g>
<g>
</g>
<g>
</g>
<g>
</g>
<g>
</g>
<g>
</g>
<g>
</g>
<g>
</g>
<g>
</g>
<g>
</g>
<g>
</g>
<g>
</g>
<g>
</g>
</svg>
